<?xml version="1.0" encoding="UTF-8" standalone="no"?>
<!-- Created with Inkscape (http://www.inkscape.org/) -->

<svg
   xmlns:dc="http://purl.org/dc/elements/1.1/"
   xmlns:cc="http://creativecommons.org/ns#"
   xmlns:rdf="http://www.w3.org/1999/02/22-rdf-syntax-ns#"
   xmlns:svg="http://www.w3.org/2000/svg"
   xmlns="http://www.w3.org/2000/svg"
   xmlns:sodipodi="http://sodipodi.sourceforge.net/DTD/sodipodi-0.dtd"
   xmlns:inkscape="http://www.inkscape.org/namespaces/inkscape"
   version="1.1"
   id="svg2"
   xml:space="preserve"
   width="586.74658"
   height="416.46823"
   viewBox="0 0 586.74658 416.46823"
   sodipodi:docname="Barcode_frequency.pdf"
   inkscape:version="0.92.1 r15371"><metadata
     id="metadata8"><rdf:RDF><cc:Work
         rdf:about=""><dc:format>image/svg+xml</dc:format><dc:type
           rdf:resource="http://purl.org/dc/dcmitype/StillImage" /><dc:title></dc:title></cc:Work></rdf:RDF></metadata><defs
     id="defs6" /><sodipodi:namedview
     pagecolor="#ffffff"
     bordercolor="#666666"
     borderopacity="1"
     objecttolerance="10"
     gridtolerance="10"
     guidetolerance="10"
     inkscape:pageopacity="0"
     inkscape:pageshadow="2"
     inkscape:window-width="1920"
     inkscape:window-height="1137"
     id="namedview4"
     showgrid="false"
     inkscape:zoom="1.3386593"
     inkscape:cx="180.87692"
     inkscape:cy="110.91335"
     inkscape:window-x="1272"
     inkscape:window-y="-8"
     inkscape:window-maximized="1"
     inkscape:current-layer="g10"
     fit-margin-top="0"
     fit-margin-left="0"
     fit-margin-right="0"
     fit-margin-bottom="0" /><g
     id="g10"
     inkscape:groupmode="layer"
     inkscape:label="Barcode_frequency"
     transform="matrix(1.3333333,0,0,-1.3333333,-14.940321,498.63999)"><path
       inkscape:connector-curvature="0"
       id="path14"
       style="fill:#ffffff;fill-opacity:1;fill-rule:nonzero;stroke:none;stroke-width:0.88825703"
       d="M 11.205241,373.98 H 451.26519 V 61.628827 H 11.205241 Z" /><g
       transform="translate(0,373.97986)"
       id="g16"><path
         inkscape:connector-curvature="0"
         id="path18"
         style="fill:none;stroke:#ebebeb;stroke-width:0.77999997;stroke-linecap:butt;stroke-linejoin:round;stroke-miterlimit:10;stroke-dasharray:none;stroke-opacity:1"
         d="m 126.398,-266.488 v 229.16" /></g><g
       transform="translate(0,373.97986)"
       id="g20"><path
         inkscape:connector-curvature="0"
         id="path22"
         style="fill:none;stroke:#ebebeb;stroke-width:0.77999997;stroke-linecap:butt;stroke-linejoin:round;stroke-miterlimit:10;stroke-dasharray:none;stroke-opacity:1"
         d="m 218.09,-266.488 v 229.16" /></g><g
       transform="translate(0,373.97986)"
       id="g24"><path
         inkscape:connector-curvature="0"
         id="path26"
         style="fill:none;stroke:#ebebeb;stroke-width:0.77999997;stroke-linecap:butt;stroke-linejoin:round;stroke-miterlimit:10;stroke-dasharray:none;stroke-opacity:1"
         d="m 309.77,-266.488 v 229.16" /></g><g
       transform="translate(0,373.97986)"
       id="g28"><path
         inkscape:connector-curvature="0"
         id="path30"
         style="fill:none;stroke:#ebebeb;stroke-width:0.77999997;stroke-linecap:butt;stroke-linejoin:round;stroke-miterlimit:10;stroke-dasharray:none;stroke-opacity:1"
         d="m 401.461,-266.488 v 229.16" /></g><g
       transform="translate(0,373.97986)"
       id="g32"><path
         inkscape:connector-curvature="0"
         id="path34"
         style="fill:none;stroke:#ebebeb;stroke-width:1.54999995;stroke-linecap:butt;stroke-linejoin:round;stroke-miterlimit:10;stroke-dasharray:none;stroke-opacity:1"
         d="m 172.242,-266.488 v 229.16" /></g><g
       transform="translate(0,373.97986)"
       id="g36"><path
         inkscape:connector-curvature="0"
         id="path38"
         style="fill:none;stroke:#ebebeb;stroke-width:1.54999995;stroke-linecap:butt;stroke-linejoin:round;stroke-miterlimit:10;stroke-dasharray:none;stroke-opacity:1"
         d="m 263.93,-266.488 v 229.16" /></g><g
       transform="translate(0,373.97986)"
       id="g40"><path
         inkscape:connector-curvature="0"
         id="path42"
         style="fill:none;stroke:#ebebeb;stroke-width:1.54999995;stroke-linecap:butt;stroke-linejoin:round;stroke-miterlimit:10;stroke-dasharray:none;stroke-opacity:1"
         d="m 355.609,-266.488 v 229.16" /></g><path
       inkscape:connector-curvature="0"
       id="path44"
       style="fill:#b22222;fill-opacity:1;fill-rule:nonzero;stroke:none"
       d="M 80.559,333.285 H 445.711 V 313.062 H 80.559 Z" /><path
       inkscape:connector-curvature="0"
       id="path46"
       style="fill:#b22222;fill-opacity:1;fill-rule:nonzero;stroke:none"
       d="M 80.559,310.824 H 438.911 V 290.605 H 80.559 Z" /><path
       inkscape:connector-curvature="0"
       id="path48"
       style="fill:#b22222;fill-opacity:1;fill-rule:nonzero;stroke:none"
       d="M 80.559,288.355 H 368.27 V 268.132 H 80.559 Z" /><path
       inkscape:connector-curvature="0"
       id="path50"
       style="fill:#7f7f7f;fill-opacity:1;fill-rule:nonzero;stroke:none"
       d="M 80.559,265.882 H 199.45 V 245.663 H 80.559 Z" /><path
       inkscape:connector-curvature="0"
       id="path52"
       style="fill:#7f7f7f;fill-opacity:1;fill-rule:nonzero;stroke:none"
       d="M 80.559,243.425 H 91.411 V 223.202 H 80.559 Z" /><path
       inkscape:connector-curvature="0"
       id="path54"
       style="fill:#7f7f7f;fill-opacity:1;fill-rule:nonzero;stroke:none"
       d="m 80.559,220.953 h 5.293 v -20.219 h -5.293 z" /><path
       inkscape:connector-curvature="0"
       id="path56"
       style="fill:#7f7f7f;fill-opacity:1;fill-rule:nonzero;stroke:none"
       d="m 80.559,198.484 h 2.512 v -20.219 h -2.512 z" /><path
       inkscape:connector-curvature="0"
       id="path58"
       style="fill:#7f7f7f;fill-opacity:1;fill-rule:nonzero;stroke:none"
       d="M 80.559,176.015 H 82.68 V 155.792 H 80.559 Z" /><path
       inkscape:connector-curvature="0"
       id="path60"
       style="fill:#7f7f7f;fill-opacity:1;fill-rule:nonzero;stroke:none"
       d="m 80.559,153.554 h 1.602 v -20.219 h -1.602 z" /><path
       inkscape:connector-curvature="0"
       id="path62"
       style="fill:#7f7f7f;fill-opacity:1;fill-rule:nonzero;stroke:none"
       d="m 80.559,131.085 h 1.563 v -20.223 h -1.563 z" /><text
       id="text66"
       style="font-variant:normal;font-weight:bold;font-size:11px;font-family:Arial;-inkscape-font-specification:Arial-BoldMT;writing-mode:lr-tb;fill:#ffffff;fill-opacity:1;fill-rule:nonzero;stroke:none"
       transform="scale(1,-1)"
       x="320.86029"
       y="-320.1673"><tspan
         id="tspan64"
         sodipodi:role="line"
         y="-320.1673"
         x="320.86029 328.80228 332.46527 341.01227 348.95428 356.28027">AtGRP7</tspan></text>
<text
       id="text70"
       style="font-variant:normal;font-weight:bold;font-size:11px;font-family:Arial;-inkscape-font-specification:Arial-BoldMT;writing-mode:lr-tb;fill:#ffffff;fill-opacity:1;fill-rule:nonzero;stroke:none"
       transform="scale(1,-1)"
       x="362.39627"
       y="-320.1673"><tspan
         id="tspan68"
         y="-320.1673"
         x="362.39627">−</tspan></text>
<text
       id="text76"
       style="font-variant:normal;font-weight:bold;font-size:11px;font-family:Arial;-inkscape-font-specification:Arial-BoldMT;writing-mode:lr-tb;fill:#ffffff;fill-opacity:1;fill-rule:nonzero;stroke:none"
       transform="scale(1,-1)"
       x="368.80927"
       y="-320.1673"><tspan
         id="tspan72"
         sodipodi:role="line"
         y="-320.1673"
         x="368.80927 377.35629 384.06628 391.39227 394.43927 398.71829 404.83429 411.54428 414.59128 417.63828">GFP rep. 2</tspan><tspan
         id="tspan74"
         sodipodi:role="line"
         y="-297.79059"
         x="314.06027 322.00226 325.66525 334.21228 342.15427 349.48026">AtGRP7</tspan></text>
<text
       id="text80"
       style="font-variant:normal;font-weight:bold;font-size:11px;font-family:Arial;-inkscape-font-specification:Arial-BoldMT;writing-mode:lr-tb;fill:#ffffff;fill-opacity:1;fill-rule:nonzero;stroke:none"
       transform="scale(1,-1)"
       x="355.59628"
       y="-297.79059"><tspan
         id="tspan78"
         y="-297.79059"
         x="355.59628">−</tspan></text>
<text
       id="text86"
       style="font-variant:normal;font-weight:bold;font-size:11px;font-family:Arial;-inkscape-font-specification:Arial-BoldMT;writing-mode:lr-tb;fill:#ffffff;fill-opacity:1;fill-rule:nonzero;stroke:none"
       transform="scale(1,-1)"
       x="362.00928"
       y="-297.79059"><tspan
         id="tspan82"
         sodipodi:role="line"
         y="-297.79059"
         x="362.00928 370.55627 377.26627 384.59229 387.63928 391.91827 398.03427 404.74426 407.79126 410.83826">GFP rep. 1</tspan><tspan
         id="tspan84"
         sodipodi:role="line"
         y="-275.1918"
         x="243.42029 251.36229 255.02528 263.5723 271.51428 278.8403">AtGRP7</tspan></text>
<text
       id="text90"
       style="font-variant:normal;font-weight:bold;font-size:11px;font-family:Arial;-inkscape-font-specification:Arial-BoldMT;writing-mode:lr-tb;fill:#ffffff;fill-opacity:1;fill-rule:nonzero;stroke:none"
       transform="scale(1,-1)"
       x="284.95627"
       y="-275.1918"><tspan
         id="tspan88"
         y="-275.1918"
         x="284.95627">−</tspan></text>
<text
       id="text94"
       style="font-variant:normal;font-weight:bold;font-size:11px;font-family:Arial;-inkscape-font-specification:Arial-BoldMT;writing-mode:lr-tb;fill:#ffffff;fill-opacity:1;fill-rule:nonzero;stroke:none"
       transform="scale(1,-1)"
       x="291.36929"
       y="-275.1918"><tspan
         id="tspan92"
         sodipodi:role="line"
         y="-275.1918"
         x="291.36929 299.91629 306.62628 313.95227 316.99927 321.27829 327.39429 334.10428 337.15128 340.19827">GFP rep. 3</tspan></text>
<text
       id="text98"
       style="font-variant:normal;font-weight:normal;font-size:13px;font-family:Arial;-inkscape-font-specification:ArialMT;writing-mode:lr-tb;fill:#4d4d4d;fill-opacity:1;fill-rule:nonzero;stroke:none"
       transform="scale(1,-1)"
       x="76.950272"
       y="-90.983398"><tspan
         id="tspan96"
         sodipodi:role="line"
         y="-90.983398"
         x="76.950272 143.32826 150.55627 154.15727 161.38527 168.61327 175.84126 179.44226 186.67027 193.89827 231.36427 238.59227 245.82027 249.42126 256.64926 263.87726 271.10526 274.70627 281.93427 289.16226 323.01425 330.24228 337.47025 341.07126 348.29926 355.52725 362.75525 366.35626 373.58426 380.81226">05,000,00010,000,00015,000,000</tspan></text>
<text
       id="text102"
       style="font-variant:normal;font-weight:normal;font-size:16px;font-family:Arial;-inkscape-font-specification:ArialMT;writing-mode:lr-tb;fill:#000000;fill-opacity:1;fill-rule:nonzero;stroke:none"
       transform="matrix(0,1,1,0,0,0)"
       x="153.03777"
       y="30.357449"><tspan
         id="tspan100"
         sodipodi:role="line"
         y="30.357449"
         x="153.03777 161.93376 170.82976 176.15776 184.15776 193.05376 201.99776 210.89375 215.32576 223.32576 232.22176 241.11777 250.01376 258.90976 267.80576 275.80576">barcode sequence</tspan></text>
<text
       id="text124"
       style="font-variant:normal;font-weight:normal;font-size:13.00000095px;font-family:Consolas;-inkscape-font-specification:Consolas;writing-mode:lr-tb;fill:#000000;fill-opacity:1;fill-rule:nonzero;stroke:none"
       transform="scale(1,-1)"
       x="49.249935"
       y="-318.78351"><tspan
         id="tspan104"
         sodipodi:role="line"
         y="-318.78351"
         x="49.249935 56.516933 63.770935 71.037933">TGGC</tspan><tspan
         id="tspan106"
         sodipodi:role="line"
         y="-296.53177"
         x="48.738293 56.005291 63.259293 70.526291">CGGA</tspan><tspan
         id="tspan108"
         sodipodi:role="line"
         y="-273.68182"
         x="49.107937 56.374935 63.628937 70.895935">GGTT</tspan><tspan
         id="tspan110"
         sodipodi:role="line"
         y="-251.71399"
         x="48.556156 55.823154 63.077156 70.344154">TTAA</tspan><tspan
         id="tspan112"
         sodipodi:role="line"
         y="-229.25688"
         x="48.527584 55.794582 63.048584 70.315582">GGCA</tspan><tspan
         id="tspan114"
         sodipodi:role="line"
         y="-206.83101"
         x="49.230267 56.497265 63.751266 71.018265">CCGG</tspan><tspan
         id="tspan116"
         sodipodi:role="line"
         y="-183.91853"
         x="49.079365 56.346363 63.600365 70.867363">GGCT</tspan><tspan
         id="tspan118"
         sodipodi:role="line"
         y="-162.38019"
         x="48.47311 55.740108 62.99411 70.261108">GGAA</tspan><tspan
         id="tspan120"
         sodipodi:role="line"
         y="-139.85791"
         x="48.538303 55.805302 63.059303 70.326302">TGGA</tspan><tspan
         id="tspan122"
         sodipodi:role="line"
         y="-117.27846"
         x="48.387417 55.654415 62.908417 70.175415">CGAA</tspan></text>
<g
       transform="translate(0,373.97986)"
       id="g126"><path
         inkscape:connector-curvature="0"
         id="path128"
         style="fill:none;stroke:#000000;stroke-width:1.54999995;stroke-linecap:butt;stroke-linejoin:round;stroke-miterlimit:10;stroke-dasharray:none;stroke-opacity:1"
         d="m 80.559,-266.488 v 229.16" /></g><text
       id="text132"
       style="font-variant:normal;font-weight:normal;font-size:16px;font-family:Arial;-inkscape-font-specification:ArialMT;writing-mode:lr-tb;fill:#000000;fill-opacity:1;fill-rule:nonzero;stroke:none"
       transform="scale(1,-1)"
       x="203.60506"
       y="-67.860703"><tspan
         id="tspan130"
         sodipodi:role="line"
         y="-67.860703"
         x="203.60506 208.14906 213.60506 222.61305 231.63705 240.64507 249.66905 258.67706 266.78906 274.90106 279.44507 284.90106 290.35706 299.36505 308.38907 317.39706 325.50906">frequency (reads)</tspan></text>
<path
       inkscape:connector-curvature="0"
       id="path134"
       style="fill:#b22222;fill-opacity:1;fill-rule:nonzero;stroke:none"
       d="m 144.16,366.433 h 15.301 V 351.136 H 144.16 Z" /><path
       inkscape:connector-curvature="0"
       id="path136"
       style="fill:#7f7f7f;fill-opacity:1;fill-rule:nonzero;stroke:none"
       d="m 266.199,366.433 h 15.297 v -15.297 h -15.297 z" /><text
       id="text148"
       style="font-variant:normal;font-weight:normal;font-size:13.00000095px;font-family:Arial;-inkscape-font-specification:ArialMT;writing-mode:lr-tb;fill:#000000;fill-opacity:1;fill-rule:nonzero;stroke:none"
       transform="scale(1,-1)"
       x="163.01884"
       y="-354.69199"><tspan
         id="tspan138"
         sodipodi:role="line"
         y="-354.69199"
         x="163.01884 169.63583 176.98083 187.95284 195.31084 198.31384 205.65884 209.36385 216.70885 224.05385 228.51285 235.12985 242.47485 249.81985">sample barcode</tspan><tspan
         id="tspan140"
         sodipodi:role="line"
         y="-355.05945"
         x="286.26791 293.61292 297.31793 304.66293 312.02094 316.46692 320.17194 327.52994 334.87494 339.32092 345.93793 353.28293 360.62793">other barcode</tspan><tspan
         id="tspan142"
         sodipodi:role="line"
         y="-33.514275"
         x="5.8285627 13.87556 18.33456 25.679562 33.024563 40.369564 47.714558 55.059574 61.676563 68.293564 71.998566 79.343567 83.048561 86.753563 90.471565 97.816566 101.52157 105.98057 113.32557 124.29757 131.64256 136.10158 142.71857 146.42357 153.76857 157.47357 161.17857 164.88358 172.24158 179.58658 183.29158 190.63658 197.98157 204.59857 207.60158 211.30658 214.30957 221.65457 229.01257 232.71758 240.06258 243.76758 247.47258 254.81758 261.3176 268.67557 276.03357 280.47958 283.4826 294.46759 301.81259 309.15759 312.86258 320.20758 323.22357 326.92859 334.27359 341.61859 346.07758 352.68158 360.02658 367.38458 374.72958 381.33359 385.05157 389.49759 396.84259 401.30157 408.64658 413.10559 416.81058">Frequency of tetramers at the position of experimental barcodes (4-7). </tspan><tspan
         id="tspan144"
         sodipodi:role="line"
         y="-20.514277"
         x="5.8285627 14.616557 21.961559 29.306561 36.651562 43.996563 51.341564 57.958569 65.303566 71.920563 75.625565 82.242561 89.587563 94.033562 98.492561 105.83757 112.45457 119.79957 127.14457 134.48958 141.83456 144.85057 152.19557 159.54057 163.24557 166.95058 174.29558 178.00058 181.71857 189.06357 196.40857 200.11357 207.45857 213.95857 221.31657 228.66158 233.12057 236.12358 247.10858 254.45358 261.79858 265.50357 272.84857 279.56958 286.92758 294.27258 298.71857 305.33557 312.68057 320.02557 327.37057 333.98758 337.6926 345.0376 349.49658 356.84158 360.5466 367.89157 370.90759 378.25259 385.5976 388.60059 391.60358 398.94858 406.29358 410.0116 417.3566 424.70157 428.40659 431.40958 438.75458 442.4726 446.91858 454.26358 461.60858 465.3266">Sequences corresponding to the experimentalbarcodes are highlighted in red. </tspan><tspan
         id="tspan146"
         sodipodi:role="line"
         y="-7.514276"
         x="5.8285627 16.033566 20.492565 27.837566 34.454571 38.159557 45.504574 52.849567 57.308567 63.912563 67.617561 70.63356 77.978561 85.323563 88.326561 94.943565 102.28857 105.99357 113.33857 117.04357 120.74857 128.10657 131.81157 136.25757 143.61557 154.58757 161.93257 166.39157 173.00858 176.71358 186.24257 193.58757 196.59058 203.20758 210.55258 214.25757 220.87457 228.21957 235.56458 238.56758 245.91258 249.61758 256.97559 264.32059 268.02557 271.73059 279.07559 286.42059 290.13858 297.48358 304.08759 310.70459 313.70758 321.05258 328.39758 335.75558 343.10059 346.80557 350.51059 357.85559 361.56058 368.90558 376.26358 379.9686 387.3136 393.8136 401.1716 408.5166 412.97559 415.97858 426.95059 434.30859 441.65359 445.35858">Grey bars indicate tetramers which could not be assigned to an experiment.</tspan></text>
</g></svg>